<svg width="22" height="22" viewBox="0 0 22 22" fill="none" xmlns="http://www.w3.org/2000/svg">
<path fill-rule="evenodd" clip-rule="evenodd" d="M10.75 1.5C5.64136 1.5 1.5 5.64136 1.5 10.75C1.5 15.8586 5.64137 20 10.75 20C15.8586 20 20 15.8586 20 10.75C20 10.3358 20.3358 10 20.75 10C21.1642 10 21.5 10.3358 21.5 10.75C21.5 16.687 16.687 21.5 10.75 21.5C4.81293 21.5 0 16.687 0 10.75C0 4.81294 4.81294 0 10.75 0C13.5437 0 16.089 1.06639 18 2.81269V1.25C18 0.835786 18.3358 0.5 18.75 0.5C19.1642 0.5 19.5 0.835786 19.5 1.25V4.75C19.5 5.16421 19.1642 5.5 18.75 5.5H15.25C14.8358 5.5 14.5 5.16421 14.5 4.75C14.5 4.33579 14.8358 4 15.25 4H17.0746C15.4199 2.44872 13.196 1.5 10.75 1.5Z" fill="white"/>
<path d="M14.6953 11.1077C14.5186 11.7344 13.6833 12.1773 12.0129 13.0631C10.398 13.9193 9.5906 14.3475 8.9399 14.1754C8.6709 14.1042 8.4258 13.9691 8.22812 13.7829C7.75 13.3327 7.75 12.4594 7.75 10.7129C7.75 8.9663 7.75 8.09307 8.22812 7.64284C8.4258 7.4567 8.6709 7.32157 8.9399 7.25042C9.5906 7.07833 10.398 7.50646 12.0129 8.36272C13.6833 9.2485 14.5186 9.6914 14.6953 10.3181C14.7682 10.5768 14.7682 10.849 14.6953 11.1077Z" stroke="white" stroke-width="1.5" stroke-linecap="round" stroke-linejoin="round"/>
</svg>
    